<svg width="300" height="300" viewBox="0 0 300 300" fill="none" xmlns="http://www.w3.org/2000/svg">
<path d="M129.057 255C126.236 255 123.435 254.26 120.962 252.836L95.1947 237.581C91.3461 235.429 93.2241 234.667 94.4934 234.229C99.6248 232.432 100.666 232.026 106.143 228.916C106.719 228.587 107.473 228.703 108.062 229.051L127.857 240.798C128.572 241.184 129.587 241.184 130.249 240.798L207.433 196.245C208.148 195.84 208.612 195.009 208.612 194.159V105.093C208.612 104.204 208.148 103.412 207.418 102.967L130.265 58.4536C129.55 58.0286 128.603 58.0286 127.888 58.4536L50.7505 102.967C50.0028 103.392 49.5275 104.223 49.5275 105.073V194.139C49.5275 194.99 49.9912 195.801 50.7254 196.207L71.8617 208.417C83.3379 214.155 90.3511 207.393 90.3511 200.592V112.685C90.3511 111.43 91.3365 110.464 92.5923 110.464H102.368C103.585 110.464 104.59 111.43 104.59 112.685V200.631C104.59 215.933 96.2438 224.723 81.7343 224.723C77.2714 224.723 73.7551 224.723 63.9404 219.893L43.6928 208.224C38.6889 205.326 35.5977 199.916 35.5977 194.139V105.073C35.5977 99.2772 38.6889 93.8676 43.6928 91.0082L120.954 46.4365C125.842 43.6737 132.334 43.6737 137.183 46.4365L214.348 91.0275C219.333 93.9062 222.443 99.2966 222.443 105.093V194.159C222.443 199.935 219.333 205.326 214.348 208.224L137.183 252.796C134.71 254.225 131.909 254.959 129.05 254.959" fill="#689F63"/>
<path d="M152.898 193.627C119.127 193.627 112.046 178.125 112.046 165.122C112.046 163.886 113.043 162.901 114.281 162.901H124.25C125.352 162.901 126.279 163.702 126.453 164.79C127.96 174.949 132.442 180.072 152.864 180.072C169.131 180.072 176.048 176.398 176.048 167.771C176.048 162.806 174.077 159.116 148.806 156.643C127.67 154.556 114.61 149.9 114.61 132.995C114.61 117.423 127.747 108.149 149.753 108.149C174.464 108.149 186.713 116.727 188.258 135.159C188.316 135.796 188.084 136.415 187.659 136.878C187.234 137.323 186.635 137.593 186.017 137.593H175.99C174.947 137.593 174.039 136.859 173.826 135.854C171.411 125.17 165.576 121.751 149.714 121.751C131.959 121.751 129.892 127.933 129.892 132.57C129.892 138.192 132.326 139.834 156.283 143.003C180.008 146.152 191.272 150.596 191.272 167.269C191.272 184.078 177.246 193.718 152.786 193.718M246.798 99.2618H249.387C251.513 99.2618 251.918 97.7741 251.918 96.9047C251.918 94.625 250.353 94.625 249.484 94.625H246.818L246.798 99.2618ZM243.649 91.9588H249.387C251.358 91.9588 255.222 91.9588 255.222 96.3638C255.222 99.4357 253.251 100.073 252.073 100.46C254.372 100.614 254.526 102.121 254.836 104.246C254.99 105.58 255.241 107.879 255.705 108.651H252.169C252.073 107.879 251.532 103.628 251.532 103.396C251.3 102.45 250.972 101.986 249.793 101.986H246.876V108.671H243.649V91.9588ZM236.752 100.266C236.752 107.183 242.335 112.786 249.194 112.786C256.111 112.786 261.694 107.067 261.694 100.266C261.694 93.3305 256.033 87.8242 249.175 87.8242C242.413 87.8242 236.733 93.2532 236.733 100.247M264.09 100.305C264.09 108.497 257.386 115.182 249.213 115.182C241.099 115.182 234.337 108.574 234.337 100.305C234.337 91.8815 241.254 85.4285 249.213 85.4285C257.231 85.4285 264.071 91.9008 264.071 100.305" fill="#689F63"/>
</svg>
